<?xml version="1.0" standalone="no"?>
<!DOCTYPE svg PUBLIC "-//W3C//DTD SVG 20010904//EN"
 "http://www.w3.org/TR/2001/REC-SVG-20010904/DTD/svg10.dtd">
<svg version="1.0" xmlns="http://www.w3.org/2000/svg"
 width="128.000000pt" height="128.000000pt" viewBox="0 0 128.000000 128.000000"
 preserveAspectRatio="xMidYMid meet">

<g transform="translate(0.000000,128.000000) scale(0.100000,-0.100000)"
fill="#000000" stroke="none">
<path d="M500 1264 c-234 -50 -436 -254 -485 -489 -95 -454 306 -855 760 -760
181 38 349 168 433 335 95 191 95 389 0 580 -129 257 -422 396 -708 334z m238
-203 c138 -71 172 -237 73 -352 -87 -103 -244 -106 -338 -8 -104 110 -71 287
66 359 49 26 149 27 199 1z m-239 -483 c54 -28 72 -32 139 -32 67 0 86 5 141
32 36 18 73 32 84 32 48 0 155 -147 173 -239 6 -30 2 -37 -52 -90 -193 -187
-494 -187 -688 1 -54 52 -58 59 -52 90 18 93 124 238 174 238 11 0 47 -14 81
-32z"/>
</g>
</svg>
